# xmcd
#
# Track frame offsets: 
#        150
#        25980
#        47061
#        64124
#        84760
#        98727
#        118162
#        140631
#        159457
#        180057
#
# Disc length: 2730 seconds
#
# Revision: 1
# Processed by: cddbd v1.5.2PL0 Copyright (c) Steve Scherf et al.
# Submitted via: ExactAudioCopy v0.95b3
#
DISCID=770aa80a
DTITLE=Eileen Meyer - Inevitable
DYEAR=2000
DGENRE=New Age
TTITLE0=Its All Ok
TTITLE1=Thats What Love Would Do
TTITLE2=Inevitable
TTITLE3=Baby You
TTITLE4=She's Got Something to Say
TTITLE5=Beloved
TTITLE6=Pieces of Me
TTITLE7=All of Creation
TTITLE8=Home
TTITLE9=Find Another Way
EXTD=
EXTT0=
EXTT1=
EXTT2=
EXTT3=
EXTT4=
EXTT5=
EXTT6=
EXTT7=
EXTT8=
EXTT9=
PLAYORDER=
